<?xml version="1.0" encoding="utf-8"?>
<!-- Generator: Adobe Illustrator 25.2.1, SVG Export Plug-In . SVG Version: 6.00 Build 0)  -->
<svg version="1.1" id="Layer_1" xmlns="http://www.w3.org/2000/svg" xmlns:xlink="http://www.w3.org/1999/xlink" x="0px" y="0px"
	 viewBox="0 0 183.1 47.9" style="enable-background:new 0 0 183.1 47.9;" xml:space="preserve">
<style type="text/css">
	.st0{fill:none;stroke:#131718;stroke-width:0.5;stroke-miterlimit:5;}
</style>
<g>
	<path class="st0" d="M44.5,42.6V28c0-1.1-0.2-1.9-0.7-2.4c-0.5-0.6-1.4-0.8-2.6-0.8c-1.4,0-2.5,0.4-3.2,1.1s-1,1.8-1,3.1v13.7H25
		V28c0-1.1-0.2-1.9-0.7-2.5c-0.5-0.5-1.4-0.8-2.6-0.8c-1.4,0-2.5,0.4-3.2,1.1s-1,1.8-1,3.1v13.7H5V17h12v3.5h0.1
		c1.2-1.4,2.6-2.5,4.3-3.2s3.6-1,5.9-1c2.2,0,4,0.3,5.5,0.9c1.4,0.6,2.6,1.7,3.5,3.3c1.1-1.4,2.4-2.5,4.1-3.2
		c1.7-0.7,3.6-1.1,5.8-1.1c3.4,0,6,0.8,7.9,2.3s2.8,3.6,2.8,6.2v17.9H44.5z"/>
	<path class="st0" d="M82.8,40.7c-2,0.8-4,1.4-6,1.8c-1.9,0.4-3.9,0.6-5.9,0.6c-3.2,0-5.7-0.5-7.5-1.6s-2.7-2.6-2.7-4.5
		c0-1.5,0.7-2.9,2-4c1.4-1.1,3.3-1.9,5.9-2.5c0.7-0.2,1.9-0.4,3.3-0.7c4.1-0.8,6.9-1.5,8.6-2.2c0-0.1,0-0.2,0-0.3c0-0.1,0-0.2,0-0.4
		c0-1-0.4-1.7-1.2-2.1c-0.8-0.4-2.2-0.6-4-0.6c-2.3,0-4.5,0.3-6.6,0.9c-2.2,0.6-4.3,1.6-6.4,2.8v-7.3c2.5-1.3,5.1-2.3,7.8-2.9
		c2.7-0.7,5.5-1,8.4-1c5.1,0,8.9,0.8,11.5,2.4s3.9,4,3.9,7.2v7.1c0,1.1,0.3,1.8,0.8,2.2c0.5,0.3,1.6,0.5,3.2,0.6l-2.4,6.7
		c-0.9,0-1.5,0.1-2,0.1s-1,0.1-1.4,0.1c-2.4,0-4.3-0.2-5.7-0.5C84.9,42.2,83.7,41.6,82.8,40.7z M81,37.5c-0.2-0.8-0.4-1.5-0.5-2.2
		s-0.2-1.4-0.2-2.1c0-0.1,0-0.3,0-0.6s0-0.4,0-0.6l-3.7,1l-0.3,0.1c-3.1,0.9-4.6,2-4.6,3.3c0,0.8,0.3,1.4,0.9,1.8
		c0.6,0.4,1.4,0.7,2.4,0.7c0.8,0,1.6-0.1,2.4-0.3C78.4,38.5,79.5,38.1,81,37.5z"/>
	<path class="st0" d="M129.3,41.6c-2,0.5-3.9,0.9-5.8,1.1c-1.9,0.2-3.7,0.4-5.5,0.4c-5.9,0-10.7-1.2-14.4-3.7
		c-3.6-2.4-5.5-5.6-5.5-9.6s1.8-7.2,5.4-9.6s8.4-3.6,14.4-3.6c1.8,0,3.6,0.1,5.5,0.4c1.8,0.2,3.7,0.6,5.6,1.1v8.5
		c-1.9-0.6-3.5-1-4.7-1.3c-1.2-0.2-2.4-0.3-3.5-0.3c-2.6,0-4.7,0.5-6.4,1.4c-1.6,0.9-2.4,2.1-2.4,3.5c0,1.5,0.8,2.7,2.4,3.6
		c1.6,0.9,3.7,1.4,6.4,1.4c1.1,0,2.3-0.1,3.8-0.4c1.4-0.2,3-0.6,4.6-1.1L129.3,41.6L129.3,41.6z"/>
	<path class="st0" d="M144.1,4.3v8.2c0,2-0.5,3.8-1.4,5.6c-0.9,1.8-2.4,3.2-4.4,4.4c-2,1.1-4.2,1.8-6.5,1.9v-4.2
		c1.7-0.2,3-0.7,4-1.5s1.5-2.1,1.6-3.8h-5.5V4.3H144.1z"/>
	<path class="st0" d="M163.6,24.7c0-0.8-0.4-1.4-1.2-1.7c-0.8-0.3-1.9-0.5-3.1-0.5c-1.4,0-2.5,0.1-3.2,0.4s-1,0.7-1,1.4
		c0,0.5,0.3,0.9,0.9,1.1c0.6,0.3,1.3,0.4,2,0.5l11.5,1c2.8,0.3,5,1,6.4,2.3s2.2,3.1,2.2,5.5c0,3.2-1.4,5.6-4.3,7
		c-2.8,1.4-7.5,2.2-13.8,2.2c-6.2,0-10.6-0.7-13.4-2c-2.8-1.4-4.3-3.7-4.5-7h13.8c0.2,1,0.6,1.7,1.4,2c0.8,0.3,1.9,0.5,3.4,0.5
		c1.2,0,2.2-0.1,2.9-0.4c0.7-0.3,1-0.8,1-1.5c0-0.4-0.1-0.7-0.4-1c-0.2-0.3-0.7-0.5-1.4-0.6l-9.8-1c-2.4-0.3-4.2-0.5-5.2-0.9
		c-1.1-0.3-2-0.8-2.7-1.4s-1.3-1.4-1.7-2.3s-0.6-2-0.6-3.4c0-3,1.4-5.2,4.1-6.6c2.7-1.4,7-2.1,13-2.1c11.2,0,16.8,2.9,17,8.7h-13.3
		V24.7z"/>
</g>
</svg>
